<svg width="94" height="58" viewBox="0 0 94 58" fill="none" xmlns="http://www.w3.org/2000/svg">
<path d="M93.4934 20.8371C93.4296 20.5955 93.2487 19.8375 92.6317 19.1235C92.3551 18.805 92.0253 18.5303 91.6636 18.3216C91.8977 17.9921 92.3019 17.4099 92.4296 16.5202C92.5253 15.8171 92.4083 15.2569 92.3338 14.9823C92.0891 14.1145 91.6104 13.6092 91.4508 13.4445C91.3232 13.3017 91.0891 13.082 90.77 12.8733C90.8977 12.7744 91.0359 12.6755 91.153 12.5767L91.2806 12.4558C91.6636 12.0384 92.153 11.3354 92.3338 10.3248C92.3764 10.0502 92.5253 9.21537 92.1636 8.22676C91.8445 7.34798 91.2913 6.84269 91.0785 6.65595C90.3445 5.98589 89.5785 5.73324 89.2806 5.66733C88.2381 5.4037 87.3977 5.63438 86.8977 5.77718C86.8977 5.55749 86.8657 5.33779 86.8125 5.12909C86.7487 4.8325 86.5572 3.92078 85.77 3.21776C84.9828 2.53671 84.1104 2.49277 83.5891 2.45982C82.6423 2.40489 81.6636 2.64656 80.77 3.12988L70.6423 9.21537L71.5998 5.89801C71.7487 5.4037 71.8125 4.89841 71.8019 4.39312C71.7913 3.78896 71.6423 2.63557 70.8019 1.55908C70.5147 1.19658 69.8445 0.350767 68.6423 0.0761508C68.004 -0.0666495 66.9934 -0.0776341 65.8551 0.669322C64.6636 1.44923 64.2381 2.65754 64.1211 3.1189L61.7381 11.7418C60.6423 12.8403 59.5998 14.0266 58.6211 15.2459C57.1955 17.0364 56.27 18.4864 55.7168 19.3432C54.6636 21.0019 53.6849 22.7375 52.8019 24.517L31.9721 34.491H30.4189L1.99339 0.932953C1.5785 0.449629 0.865731 0.394705 0.387007 0.823106C-0.0810779 1.25151 -0.134269 1.98748 0.280624 2.48179L28.004 35.216C26.8019 35.5236 25.6849 36.0399 24.6742 36.7209L17.1849 28.054L13.7062 28.7351L10.0253 24.8026C10.3657 24.2094 10.5572 23.5284 10.5572 22.8034C10.5572 20.6174 8.83382 18.8379 6.7168 18.8379C4.59977 18.8379 2.87637 20.6174 2.87637 22.8034C2.87637 24.9893 4.59977 26.7688 6.7168 26.7688C7.3019 26.7688 7.84446 26.626 8.33382 26.3954L12.9189 31.2835L16.3338 30.6135L22.8976 38.2038C21.004 40.1591 19.7913 42.8064 19.6636 45.7503L1.95084 31.1956C1.46148 30.7892 0.738071 30.8771 0.355092 31.3824C-0.0385247 31.8877 0.0465817 32.6346 0.535943 33.0301L19.7487 48.7821C19.9828 49.507 20.27 50.2101 20.6104 50.8911C21.2913 52.2971 22.2274 54.2194 24.2381 55.7134C26.5359 57.416 28.9296 57.5698 29.8232 57.6247C30.0572 57.6357 30.2913 57.6467 30.5253 57.6467C30.9083 57.6467 31.27 57.6247 31.6317 57.5917C32.9721 57.4709 34.2487 57.1084 35.4189 56.5372C35.5785 56.4603 35.7274 56.3944 35.8551 56.3395C38.0253 55.3179 39.9721 53.7142 41.4721 51.693L62.5891 39.4561C63.2062 39.4781 63.8125 39.4781 64.4189 39.4451H64.4615C65.1104 39.4012 65.8445 39.3682 66.7806 39.1595C67.5253 38.9947 68.0679 38.797 69.0679 38.4345C69.887 38.1379 70.5891 37.8743 71.4402 37.4239C72.1849 37.0285 72.7062 36.677 72.9083 36.5452L72.9402 36.5232C74.6423 35.3588 89.3019 26.5491 91.7913 25.1101C92.0572 24.9564 92.8764 24.484 93.3338 23.4734C93.5785 22.9462 93.8019 22.0564 93.504 20.8261L93.4934 20.8371ZM5.1636 22.7924C5.1636 21.9026 5.86573 21.1776 6.72743 21.1776C7.58914 21.1776 8.29126 21.9026 8.29126 22.7924C8.29126 23.6821 7.58914 24.4071 6.72743 24.4071C5.86573 24.4071 5.1636 23.6821 5.1636 22.7924ZM30.6955 37.2152C35.5253 37.2152 39.4508 41.2686 39.4508 46.2556C39.4508 49.8366 37.4296 52.9342 34.4934 54.3952C33.77 54.7247 32.7274 55.1202 31.4189 55.263C31.1849 55.285 30.9402 55.2959 30.6955 55.2959C25.8657 55.2959 21.9402 51.2426 21.9402 46.2556C21.9402 41.2686 25.8657 37.2152 30.6955 37.2152ZM91.2594 22.4738C91.1104 22.8034 90.7806 22.9901 90.653 23.067C88.5359 24.2973 73.5572 33.2717 71.6636 34.5679L71.6317 34.5899C71.4615 34.6997 71.0253 35.0073 70.3977 35.3368C69.6742 35.7213 69.0891 35.93 68.2913 36.2266C67.3338 36.5781 66.887 36.7429 66.2913 36.8637C65.5253 37.0285 64.9083 37.0724 64.3125 37.1054H64.27C63.6317 37.1493 63.004 37.1493 62.3551 37.1054L61.7381 37.2592L41.3764 49.0567C41.5998 48.1669 41.7168 47.2222 41.7168 46.2556C41.7168 45.959 41.7062 45.6624 41.6849 45.3768L48.9083 41.3235L50.8445 35.7543L54.7274 33.6562C55.5466 35.3368 57.2274 36.4902 59.1636 36.4902C61.9083 36.4902 64.1317 34.1835 64.1317 31.3604C64.1317 31.3275 64.1317 31.2835 64.1317 31.2506L67.9615 30.251C68.5466 31.0858 69.504 31.635 70.5679 31.635C72.3445 31.635 73.7913 30.1411 73.7913 28.3067C73.7913 26.4722 72.3445 24.9783 70.5679 24.9783C68.887 24.9783 67.504 26.3075 67.3551 27.9991L63.5572 28.9877C63.27 28.4165 62.8764 27.9222 62.4083 27.5048L64.7913 22.9791C64.9402 23.0011 65.0998 23.0121 65.2487 23.0121C67.0785 23.0121 68.5679 21.4742 68.5679 19.5849C68.5679 17.6955 67.0785 16.1577 65.2487 16.1577C63.4189 16.1577 61.9296 17.6955 61.9296 19.5849C61.9296 20.4636 62.2487 21.2545 62.7806 21.8587L60.387 26.4063C59.9934 26.2965 59.5785 26.2416 59.153 26.2416C56.4296 26.2416 54.2168 28.5044 54.1849 31.3055L48.9934 34.1176L47.0466 39.7087L41.2274 42.9712C40.2594 39.6868 37.887 37.0285 34.8445 35.7323L54.1211 26.5052L54.6636 25.9669C55.5466 24.1435 56.5466 22.364 57.6317 20.6614C58.153 19.8375 59.0359 18.4535 60.387 16.7618C61.3657 15.5315 62.4296 14.3452 63.5466 13.2358L63.8551 12.7085L66.3232 3.77798C66.3764 3.55828 66.5679 3.02003 67.0998 2.66853C67.2487 2.56966 67.6849 2.28406 68.1849 2.39391C68.5998 2.48179 68.8657 2.81133 69.0572 3.06397C69.4615 3.58025 69.5359 4.16244 69.5359 4.45902C69.5359 4.71167 69.504 4.95333 69.4296 5.22795L67.6423 11.4013L69.3019 12.7524L81.8551 5.20598C82.387 4.92038 82.9296 4.78856 83.4721 4.81053C83.8977 4.8325 84.1211 4.85447 84.3019 5.00826C84.504 5.18401 84.5572 5.46961 84.5891 5.62339C84.6636 5.99687 84.5891 6.3374 84.4934 6.55709L70.5572 15.3009C69.9296 15.6963 69.7274 16.5311 70.1104 17.1792C70.3551 17.6076 70.8019 17.8383 71.2487 17.8383C71.4828 17.8383 71.7168 17.7724 71.9402 17.6406L86.5147 8.50137C86.5147 8.50137 86.5891 8.44645 86.6317 8.41349C86.9721 8.21577 87.27 8.10592 87.4934 8.051C87.8977 7.94115 88.2806 7.83131 88.7487 7.95214C88.8232 7.97411 89.2168 8.08395 89.5785 8.42448C89.7487 8.57826 89.9296 8.765 90.0466 9.07257C90.1849 9.45704 90.1317 9.78657 90.0998 9.92937C90.0359 10.3138 89.8551 10.5994 89.6955 10.7972C89.4189 11.0169 89.1211 11.2365 88.7806 11.4782C88.4296 11.7309 88.0572 11.9615 87.6849 12.1922C87.6317 12.2142 87.5891 12.2361 87.5466 12.2581L72.9721 21.3973C72.4402 21.7379 72.2594 22.4519 72.5891 23.0121C72.8019 23.3746 73.1742 23.5723 73.5572 23.5723C73.7594 23.5723 73.9615 23.5174 74.1423 23.3965L88.1104 14.6308C88.4083 14.5539 88.8232 14.5319 89.2381 14.6967C89.5572 14.8285 89.7594 15.0262 89.8232 15.0922C89.8977 15.169 90.0679 15.3448 90.153 15.6524C90.1636 15.6963 90.2168 15.905 90.1849 16.1796C90.1423 16.5092 89.9721 16.7399 89.8232 16.9486C89.6317 17.2122 89.387 17.4429 89.0891 17.6076L88.0679 18.2447L75.6742 25.5495C75.1317 25.8681 74.9402 26.5931 75.2487 27.1533C75.4615 27.5378 75.8445 27.7465 76.2381 27.7465C76.4296 27.7465 76.6211 27.6915 76.8019 27.5927L89.1636 20.2989C89.3657 20.211 89.8551 20.0682 90.3551 20.2659C90.5679 20.3538 90.77 20.4966 90.9296 20.6833C91.1742 20.9689 91.2487 21.2655 91.2806 21.4083C91.387 21.8367 91.3764 22.1992 91.2487 22.4629L91.2594 22.4738ZM61.8657 31.3384C61.8657 32.8763 60.653 34.1176 59.1742 34.1176C57.6955 34.1176 56.4828 32.8653 56.4828 31.3384C56.4828 29.8116 57.6955 28.5593 59.1742 28.5593C60.653 28.5593 61.8657 29.8116 61.8657 31.3384ZM69.6317 28.2847C69.6317 27.7465 70.0572 27.2961 70.5891 27.2961C71.1211 27.2961 71.5466 27.7355 71.5466 28.2847C71.5466 28.8339 71.1211 29.2733 70.5891 29.2733C70.1742 29.2733 69.8232 28.9987 69.6955 28.6143C69.6955 28.6033 69.6955 28.5923 69.6955 28.5813C69.6955 28.5483 69.6742 28.5154 69.6636 28.4824C69.653 28.4165 69.6423 28.3506 69.6423 28.2847H69.6317ZM65.27 20.6284C64.6955 20.6284 64.2274 20.1451 64.2274 19.5519C64.2274 18.9587 64.6955 18.4754 65.27 18.4754C65.8445 18.4754 66.3125 18.9587 66.3125 19.5519C66.3125 20.1451 65.8445 20.6284 65.27 20.6284Z" fill="white"/>
</svg>
